<svg width="22" height="22" viewBox="0 0 22 22" fill="none" xmlns="http://www.w3.org/2000/svg">
<ellipse cx="10.6142" cy="6.67152" rx="4.37986" ry="4.37986" stroke="#807A7A" stroke-width="1.5" stroke-linecap="round" stroke-linejoin="round"/>
<path fill-rule="evenodd" clip-rule="evenodd" d="M3.66603 17.1429C3.66485 16.835 3.73371 16.5309 3.8674 16.2535C4.28693 15.4145 5.47 14.9698 6.45169 14.7684C7.15969 14.6173 7.87746 14.5164 8.59967 14.4663C9.93678 14.3489 11.2816 14.3489 12.6187 14.4663C13.3409 14.5169 14.0586 14.6179 14.7667 14.7684C15.7484 14.9698 16.9315 15.3725 17.351 16.2535C17.6199 16.8189 17.6199 17.4753 17.351 18.0407C16.9315 18.9217 15.7484 19.3245 14.7667 19.5174C14.0595 19.6748 13.3415 19.7786 12.6187 19.8279C11.5304 19.9201 10.4371 19.937 9.34643 19.8782C9.09471 19.8782 8.85139 19.8782 8.59967 19.8279C7.87959 19.7792 7.16431 19.6754 6.46008 19.5174C5.47 19.3245 4.29532 18.9217 3.8674 18.0407C3.7344 17.7601 3.66561 17.4534 3.66603 17.1429Z" stroke="#807A7A" stroke-width="1.5" stroke-linecap="round" stroke-linejoin="round"/>
</svg>
